PathFileType	4	(X/Y/Z)	./resultDataOpenSim/trcMotMarkerGrf/sub09/qtm-01-07.trc
DataRate	CameraRate	NumFrames	NumMarkers	Units	OrigDataRate	OrigDataStartFrame	OrigNumFrames
250.000000	250.000000	11	24	m	250.000000	355	472
Frame#	Time	L.Toe.Tip			R.Toe.Tip			L.Ankle.Lat			R.Ankle.Lat			L.Ankle.Med			R.Ankle.Med			L.Heel			R.Heel			L.Knee.Lat			R.Knee.Lat			L.Knee.Med			R.Knee.Med			L.Thigh.Upper			R.Thigh.Upper			L.ASIS			R.ASIS			V.Sacral			L.Acromium			R.Acromium			C7			L.Elbow			R.Elbow			L.Wrist.Lat			R.Wrist.Lat
		X1	Y1	Z1	X2	Y2	Z2	X3	Y3	Z3	X4	Y4	Z4	X5	Y5	Z5	X6	Y6	Z6	X7	Y7	Z7	X8	Y8	Z8	X9	Y9	Z9	X10	Y10	Z10	X11	Y11	Z11	X12	Y12	Z12	X13	Y13	Z13	X14	Y14	Z14	X15	Y15	Z15	X16	Y16	Z16	X17	Y17	Z17	X18	Y18	Z18	X19	Y19	Z19	X20	Y20	Z20	X21	Y21	Z21	X22	Y22	Z22	X23	Y23	Z23	X24	Y24	Z24

355	1.416	0.77708806	0.079166277	-0.040990577	0.96798377	0.038518163	0.099140375	0.68063409	0.19858701	-0.066866873	0.82014437	0.055174376	0.13653376	0.71184664	0.19012184	0.026259376	0.83031037	0.095362206	0.045757032	0.60197913	0.20619764	-0.017388654	0.74915772	0.037842132	0.088619026	0.96639121	0.494324	-0.083239209	0.92349826	0.49963437	0.1978988	0.97355554	0.48198806	0.042200201	0.90627813	0.49161869	0.073654698	0.8379021	0.88910022	-0.10370127	0.84691534	0.90090128	0.26602747	0.9128818	0.97953675	-0.048751013	0.92952063	0.98872375	0.18841799	0.7511294	1.0347685	0.077160875	0.88677627	1.4380543	-0.10008346	0.88693373	1.4454751	0.2317316	0.81911352	1.4893524	0.068122693	0.73510746	1.0997722	-0.14924868	0.76410085	1.1014728	0.33217692	0.86645789	0.8700527	-0.17483003	0.93846727	0.88781775	0.32521425
356	1.42	0.79645408	0.077254101	-0.040350401	0.96801723	0.038484751	0.099187723	0.69706164	0.19390503	-0.066308326	0.82016212	0.05543113	0.13630715	0.72913729	0.18630299	0.026578726	0.83061493	0.095588363	0.045595393	0.6181312	0.19959164	-0.016878012	0.7495244	0.038178596	0.088240722	0.97614229	0.49656574	-0.082771649	0.92396614	0.49960996	0.19816443	0.98255806	0.48471479	0.042297398	0.90722865	0.49188979	0.073330912	0.84449723	0.89052424	-0.10380963	0.85137816	0.90163308	0.26600948	0.91872629	0.98084634	-0.048352471	0.93472968	0.98948092	0.1888525	0.75669011	1.0358314	0.077035069	0.89238994	1.4389804	-0.10002107	0.89283806	1.4466011	0.23175116	0.82483054	1.4904096	0.068261703	0.73972699	1.1015115	-0.14867969	0.77093353	1.1024744	0.33280611	0.86994556	0.8710777	-0.17551202	0.94625688	0.88990586	0.32428866
357	1.424	0.81598907	0.075383523	-0.039663599	0.96804521	0.038431718	0.099253302	0.71364361	0.18914673	-0.065710458	0.82019055	0.055664246	0.13610789	0.74649888	0.18246361	0.026961903	0.83096901	0.095774073	0.04539235	0.63450794	0.19283264	-0.016330667	0.75013903	0.038453756	0.087935959	0.98575408	0.49873582	-0.082356847	0.92510434	0.49970794	0.19837889	0.99107287	0.48730892	0.04220495	0.90820535	0.49211041	0.073057413	0.85115947	0.89188623	-0.10400244	0.85599352	0.9023663	0.26590708	0.92461474	0.98207807	-0.047986303	0.93994333	0.99018396	0.18927241	0.76221583	1.0368021	0.07686213	0.89802261	1.4398449	-0.099954445	0.89872768	1.4476684	0.23177595	0.83058275	1.4913679	0.068359251	0.74432358	1.1031466	-0.14819923	0.7776718	1.1034007	0.33338305	0.87345997	0.87205427	-0.17618196	0.95401662	0.89194487	0.32336304
358	1.428	0.8358023	0.073561087	-0.038955477	0.96808117	0.038376587	0.099329277	0.73039219	0.18432969	-0.065078835	0.82022592	0.055870305	0.13593419	0.76369118	0.17860442	0.027508302	0.83134404	0.095944096	0.045197259	0.65113316	0.18594409	-0.015770388	0.75081808	0.038669482	0.087741525	0.99515751	0.50075768	-0.081995487	0.92680508	0.49988179	0.19854009	0.99975283	0.48977015	0.042127075	0.90928889	0.49224816	0.072916031	0.85774505	0.89318167	-0.10421176	0.86085308	0.90312827	0.26566597	0.93053454	0.98323208	-0.047654538	0.94515294	0.99083042	0.1896691	0.76774294	1.0377121	0.076659714	0.90368108	1.4406493	-0.099885344	0.90460545	1.4486782	0.23180531	0.83636135	1.492253	0.068442646	0.74887844	1.1046334	-0.14785429	0.78409416	1.1042078	0.33379981	0.87696254	0.8729784	-0.17681689	0.96175657	0.89393624	0.32243189
359	1.432	0.85589418	0.071806768	-0.038245258	0.96814076	0.038344525	0.099408708	0.74731646	0.17947364	-0.064415008	0.82026842	0.056063125	0.13577769	0.78073567	0.17473422	0.028209563	0.83174075	0.096147577	0.04506941	0.66802986	0.17897316	-0.015218173	0.75135718	0.038873163	0.087596015	1.0043464	0.50259213	-0.081649034	0.92878183	0.50005602	0.19868207	1.0103769	0.49221175	0.042573813	0.91045723	0.49232516	0.072906669	0.86418876	0.89440172	-0.10439217	0.86599021	0.90393282	0.26526863	0.93649085	0.98431059	-0.047363202	0.95035788	0.99142231	0.19004042	0.77330435	1.0385688	0.076430334	0.90936116	1.4413949	-0.099814825	0.91047132	1.4496315	0.23183783	0.84216333	1.4930827	0.068532299	0.75341337	1.1059964	-0.14761479	0.79022594	1.1049009	0.33407229	0.88046143	0.87385566	-0.17742998	0.96947909	0.89587812	0.32149184
360	1.436	0.87611507	0.070136446	-0.037534072	0.96822272	0.038335129	0.099488433	0.76441563	0.17460473	-0.063718947	0.82032334	0.056258499	0.1356305	0.7977574	0.17086746	0.029008293	0.83223788	0.096427453	0.045018597	0.68519322	0.17197245	-0.01466805	0.75168075	0.039100545	0.087413759	1.0133971	0.50427455	-0.081264525	0.93081707	0.50018671	0.19883492	1.0247917	0.49477859	0.044077151	0.91163316	0.4923959	0.072993518	0.87057313	0.89553963	-0.10455875	0.87132053	0.90474074	0.26478293	0.94250182	0.98531301	-0.047117256	0.95556434	0.99196663	0.19038861	0.77888168	1.0393537	0.076161767	0.91505659	1.4420819	-0.099742243	0.91632555	1.4505273	0.23187337	0.84798349	1.4938629	0.068636675	0.75795823	1.1072778	-0.1474242	0.79620812	1.1055056	0.33427202	0.88397533	0.87469754	-0.17804779	0.97718391	0.89776999	0.32054843
361	1.44	0.89632868	0.068546368	-0.03681743	0.96831341	0.038317863	0.099561478	0.78168298	0.16974606	-0.062990692	0.82039329	0.056461458	0.1354893	0.81485866	0.16701939	0.02984956	0.83282321	0.096767044	0.044991393	0.70257965	0.16497515	-0.014061827	0.75184982	0.039351141	0.08716811	1.0223895	0.50588577	-0.080818556	0.93275986	0.50027031	0.19901883	1.0424021	0.49746097	0.046521582	0.91278354	0.49249992	0.073166848	0.87703142	0.89659285	-0.10474873	0.87663985	0.90542935	0.26438221	0.94855511	0.98623525	-0.046910318	0.96077605	0.99246848	0.19071453	0.78443234	1.0400547	0.075848585	0.92076877	1.4427105	-0.099667512	0.92216596	1.451364	0.23191197	0.85380596	1.4945896	0.068748265	0.7625314	1.1085004	-0.14724904	0.80216718	1.1060392	0.33446129	0.88751017	0.87551103	-0.17868339	0.98487146	0.89961263	0.31960839
362	1.444	0.91652235	0.067033175	-0.036089226	0.96839866	0.0382618	0.099615913	0.79911411	0.16490136	-0.062233725	0.82046738	0.056669035	0.13535356	0.83206656	0.16320674	0.03071351	0.83324721	0.097080618	0.044911047	0.72012586	0.15796986	-0.01328568	0.75194879	0.039614273	0.086867591	1.0313331	0.5074795	-0.080332459	0.93448655	0.50034786	0.19929033	1.0596354	0.500027	0.048991155	0.91398366	0.49262442	0.073429171	0.88359064	0.89756111	-0.10497062	0.88171477	0.90584483	0.26427096	0.95459268	0.98707537	-0.046718478	0.9659894	0.99292749	0.19101456	0.7899641	1.040695	0.075515991	0.92650093	1.4432788	-0.099593447	0.92798832	1.4521393	0.2319534	0.85961051	1.4952538	0.068853715	0.76714011	1.109667	-0.14708666	0.8081939	1.1065084	0.33468479	0.89106837	0.87628789	-0.17932687	0.99253963	0.90140433	0.31867347
363	1.448	0.93676066	0.065624218	-0.035340941	0.96844993	0.038160779	0.099653316	0.81671467	0.16005296	-0.061455362	0.82052576	0.056879929	0.1352204	0.84935449	0.15943962	0.031604394	0.83328658	0.097303942	0.044756145	0.73784122	0.15089114	-0.012251806	0.75201434	0.03988521	0.086508943	1.0401723	0.50905017	-0.079849482	0.93604657	0.50052672	0.19977908	1.0732494	0.5022346	0.050629755	0.91534066	0.49272479	0.073750049	0.89012246	0.89844186	-0.10518985	0.88646957	0.90597102	0.26448813	0.96056731	0.98783289	-0.046518371	0.97119823	0.99334142	0.1912844	0.79553346	1.0413082	0.075204056	0.93224865	1.4437844	-0.099522712	0.9337932	1.4528502	0.23199815	0.8653864	1.4958505	0.068949195	0.77178617	1.1107707	-0.14694633	0.81435052	1.1069222	0.33497399	0.89466038	0.87700717	-0.17995683	1.0001843	0.90314176	0.31774413
364	1.452	0.95710755	0.064372746	-0.034570878	0.96843667	0.038042345	0.099695008	0.83449575	0.15518544	-0.060664474	0.82055849	0.057097279	0.13508219	0.86673112	0.15571141	0.032507723	0.83308841	0.097462856	0.04461311	0.75585583	0.14366599	-0.01100315	0.75204866	0.040163682	0.086087192	1.0488455	0.51055113	-0.07939614	0.93768295	0.50092701	0.20060567	1.0830344	0.50404243	0.05135361	0.91683945	0.49279275	0.074074128	0.89646514	0.89922902	-0.10536364	0.89105325	0.9060044	0.2648238	0.96648853	0.98850323	-0.046309719	0.97640032	0.99371115	0.19152649	0.80116617	1.0418927	0.074925811	0.93800408	1.444228	-0.099452663	0.93958703	1.4534955	0.23204711	0.87113875	1.4963861	0.069037399	0.7764733	1.1118063	-0.14683048	0.8206392	1.1072905	0.33532648	0.89829903	0.87765149	-0.18056245	1.0077995	0.90482103	0.31682073
365	1.456	0.97758125	0.06331481	-0.033787837	0.96838616	0.037956689	0.09975358	0.85245555	0.15031585	-0.059872525	0.82057535	0.057323041	0.13493113	0.88424168	0.1520041	0.03342761	0.83302769	0.097621263	0.044602066	0.77427025	0.13632038	-0.009696293	0.75206158	0.040462098	0.085635622	1.0573282	0.51191957	-0.078963693	0.93950262	0.50148442	0.20162817	1.090714	0.50555956	0.051578536	0.9183445	0.49287419	0.074360186	0.90256151	0.89991784	-0.10547698	0.89557083	0.90616053	0.26505359	0.97239254	0.98908191	-0.046112764	0.98159674	0.99404256	0.1917514	0.80681483	1.0424036	0.074656736	0.9437639	1.4446125	-0.099377592	0.94537317	1.4540754	0.23209964	0.87688398	1.4968688	0.069114915	0.78120676	1.1127734	-0.1467323	0.82698677	1.1076101	0.33569407	0.90198986	0.8782176	-0.18115208	1.015378	0.90643765	0.31590251
